<?xml version="1.0" standalone="no"?>
<!DOCTYPE svg PUBLIC "-//W3C//DTD SVG 20010904//EN"
 "http://www.w3.org/TR/2001/REC-SVG-20010904/DTD/svg10.dtd">
<svg version="1.0" xmlns="http://www.w3.org/2000/svg"
 width="2.5em" height="1em" viewBox="0 0 926.000000 354.000000"
 preserveAspectRatio="xMidYMid meet">
<metadata>
Created by potrace 1.16, written by Peter Selinger 2001-2019
</metadata>
<g transform="translate(0.000000,354.000000) scale(0.100000,-0.100000)"
fill="currentColor" stroke="none">
<path d="M2090 3314 c-259 -21 -450 -71 -665 -174 -459 -222 -801 -638 -929
-1130 -92 -350 -70 -740 60 -1072 40 -102 133 -288 144 -288 14 0 26 25 38 75
12 50 12 51 -38 163 -118 264 -166 545 -141 826 36 387 200 736 477 1011 120
119 228 203 239 184 9 -14 -14 -96 -31 -110 -20 -16 -17 -37 6 -49 20 -11 19
-13 -17 -54 -45 -51 -93 -141 -93 -174 0 -12 16 -60 35 -106 19 -47 35 -93 35
-102 0 -10 7 -26 16 -36 14 -14 14 -20 4 -33 -11 -13 -8 -19 14 -40 14 -13 26
-33 26 -43 0 -29 30 -82 46 -82 25 0 28 30 7 68 -11 20 -23 50 -27 65 l-7 29
25 -19 c14 -10 26 -27 26 -38 0 -12 18 -39 40 -60 34 -33 40 -45 40 -81 0 -36
5 -47 37 -74 45 -40 130 -79 187 -86 37 -4 45 -1 83 35 l43 39 -46 45 c-44 44
-46 48 -39 89 6 39 12 57 49 138 6 14 29 33 50 44 32 16 44 17 76 7 53 -16 84
-14 111 8 36 28 61 32 93 16 15 -8 43 -15 61 -15 41 0 65 -22 65 -61 0 -30 30
-69 54 -69 23 0 25 38 6 106 -25 86 -17 105 59 144 66 33 90 62 70 86 -11 14
-10 15 13 18 7 0 13 9 13 18 0 29 64 68 112 68 41 0 55 11 33 25 -18 11 -10
30 19 48 35 21 51 22 51 3 0 -24 18 -28 47 -12 16 8 51 18 78 23 44 7 50 11
48 31 -3 29 28 30 80 2 20 -11 41 -20 47 -20 18 0 10 39 -9 45 -11 3 -26 17
-35 30 -9 14 -25 25 -35 25 -21 0 -37 17 -43 45 -2 14 -23 27 -69 45 -36 14
-89 44 -118 68 -60 47 -75 51 -93 22 -17 -27 -26 -26 -92 14 -56 33 -126 54
-145 42 -5 -3 -7 -15 -4 -26 3 -11 0 -27 -7 -35 -8 -10 -9 -19 -2 -27 13 -17
-22 -98 -42 -98 -9 0 -18 11 -22 24 -11 44 -37 57 -128 65 -83 8 -126 26 -126
53 0 16 69 38 120 38 27 0 73 0 102 0 29 0 57 5 62 10 18 18 114 11 156 -10
48 -25 132 -28 124 -5 -5 11 1 15 19 15 33 0 52 23 38 48 -22 40 -62 55 -169
63 -57 4 -122 11 -145 15 -39 6 -40 7 -18 16 29 10 230 -16 279 -38 18 -8 41
-14 52 -14 11 0 24 -9 30 -20 6 -11 17 -20 26 -20 8 0 17 -7 20 -15 7 -17 162
-95 191 -95 10 0 27 -7 37 -15 41 -31 63 -3 31 39 -17 22 -19 36 -7 36 16 0
189 -104 261 -158 169 -124 342 -319 445 -498 94 -163 168 -370 195 -544 6
-41 14 -89 17 -106 3 -24 18 -42 60 -74 31 -23 57 -40 59 -38 7 7 -16 203 -35
298 -144 707 -728 1265 -1440 1374 -100 16 -295 26 -370 20z"/>
<path d="M4509 2531 c-26 -4 -53 -12 -60 -17 -8 -6 -26 -14 -40 -17 -38 -9
-106 -79 -120 -124 -16 -50 -24 -495 -10 -594 6 -45 16 -78 25 -85 9 -6 13
-14 9 -18 -9 -8 45 -64 80 -83 22 -11 32 -12 43 -2 11 9 14 8 14 -7 0 -13 3
-15 11 -7 9 9 8 16 -3 27 -9 8 -18 12 -22 9 -10 -10 -7 10 4 27 7 11 10 12 10
2 0 -9 7 -11 20 -7 12 4 20 2 20 -5 0 -6 11 -8 28 -4 l27 6 -34 -30 c-22 -19
-30 -31 -23 -36 15 -9 182 -4 182 6 0 4 -16 10 -35 14 -19 3 -35 10 -35 14 0
4 24 1 53 -8 28 -8 59 -14 67 -14 24 1 70 21 70 31 0 5 9 11 20 14 27 7 55 73
39 93 -9 11 -8 14 5 14 9 0 16 4 16 8 0 13 -35 43 -43 37 -4 -3 -2 1 3 7 8 10
13 10 18 2 5 -9 10 -9 18 0 9 9 3 18 -22 35 -19 13 -34 28 -34 34 0 7 4 7 12
-1 7 -7 22 -12 35 -12 18 0 23 6 23 25 0 25 -1 25 -87 25 -65 0 -84 -3 -73
-11 11 -8 12 -12 3 -16 -7 -2 -13 -11 -13 -19 0 -9 -4 -13 -8 -10 -4 2 -14 1
-22 -4 -12 -7 -9 -11 10 -18 24 -9 24 -9 3 -16 -11 -4 -26 -20 -33 -36 -7 -16
-28 -39 -47 -50 l-35 -20 -41 27 c-25 18 -44 39 -49 58 -4 17 -8 144 -9 284 0
236 1 256 19 280 25 33 91 69 100 54 4 -5 16 -13 28 -17 11 -3 28 -22 37 -41
9 -19 22 -35 29 -35 8 0 6 -5 -4 -11 -10 -5 -18 -18 -18 -28 0 -34 24 -42 117
-39 l88 3 1 48 c2 72 -14 140 -36 158 -10 9 -17 19 -14 22 11 11 -72 56 -131
72 -61 16 -106 17 -186 6z"/>
<path d="M6540 2522 c0 -4 7 -18 16 -30 14 -21 14 -22 -11 -22 -14 0 -36 -7
-49 -15 -20 -13 -25 -13 -35 -1 -9 11 -7 15 9 19 20 5 28 27 10 27 -16 0 -87
-75 -106 -112 -22 -42 -29 -142 -15 -195 16 -59 53 -99 98 -108 31 -6 34 -9
18 -15 -16 -6 -12 -11 30 -35 28 -15 60 -34 72 -41 32 -20 46 -18 32 5 -7 10
-9 27 -5 37 8 18 8 18 16 -3 5 -12 17 -26 27 -32 15 -9 16 -12 4 -20 -12 -8
-8 -15 19 -41 l33 -31 27 33 c16 18 31 30 35 26 5 -4 2 -15 -6 -24 -7 -9 -14
-46 -16 -85 -2 -63 -1 -69 17 -69 13 0 20 -7 20 -19 0 -24 -20 -38 -30 -21 -5
9 -9 9 -14 1 -4 -6 -5 -15 -1 -20 3 -5 1 -12 -5 -16 -16 -10 -12 -21 9 -22 11
-1 22 6 24 15 4 15 5 15 6 0 0 -10 6 -18 11 -18 18 0 -14 -39 -35 -43 -25 -4
-98 31 -90 43 4 6 -3 10 -15 10 -27 0 -76 25 -83 43 -3 8 -8 35 -12 59 -6 41
-9 44 -31 40 -13 -2 -24 -10 -24 -16 0 -7 -10 -22 -23 -34 -24 -23 -43 -30
-32 -12 9 14 -25 80 -41 80 -8 0 -14 -4 -14 -9 0 -5 -9 -11 -20 -14 -11 -3
-20 -12 -20 -20 0 -14 3 -14 27 -2 30 16 45 12 37 -10 -4 -8 -10 -12 -16 -9
-5 3 -8 -2 -6 -12 2 -13 -4 -20 -19 -22 -25 -4 -28 -14 -12 -43 8 -16 13 -18
25 -8 11 9 14 8 14 -4 0 -8 10 -17 22 -20 21 -6 21 -7 3 -27 -17 -19 -17 -21
0 -40 10 -11 26 -20 35 -20 9 0 22 -6 28 -12 9 -9 15 -10 20 -2 13 21 49 26
56 8 3 -9 4 -20 0 -25 -6 -10 107 -12 155 -3 18 4 31 13 31 21 0 13 3 13 15 3
23 -19 88 3 128 44 41 41 62 108 62 201 0 134 -40 191 -193 273 -158 84 -204
132 -194 200 9 64 82 104 131 73 9 -6 22 -6 33 0 15 8 20 5 27 -13 6 -16 5
-25 -5 -31 -8 -5 -14 -25 -14 -48 0 -34 4 -41 27 -50 14 -5 60 -8 102 -7 l76
3 -1 65 c-2 89 -23 136 -66 149 -18 5 -25 10 -15 10 26 1 12 18 -36 43 -35 19
-61 23 -159 25 -65 1 -118 -1 -118 -5z"/>
<path d="M7220 2522 c0 -4 7 -18 16 -30 14 -21 14 -22 -11 -22 -14 0 -34 -5
-44 -12 -10 -6 -27 -8 -37 -4 -17 7 -17 9 5 17 20 8 22 12 11 22 -10 9 -13 9
-17 0 -3 -7 -11 -13 -18 -13 -8 0 -20 -10 -26 -22 -7 -13 -18 -27 -25 -33 -19
-16 -44 -101 -44 -153 0 -102 41 -174 107 -187 30 -6 34 -9 19 -14 -17 -7 -15
-10 15 -28 94 -58 152 -82 121 -51 -11 11 -17 48 -7 48 2 0 16 -12 30 -26 21
-21 24 -29 13 -36 -10 -7 -5 -15 20 -37 l34 -29 28 31 c16 18 32 28 37 23 4
-4 -2 -15 -14 -23 -23 -15 -31 -43 -14 -43 6 0 7 -24 4 -55 -5 -51 -4 -55 16
-55 12 0 21 -6 21 -16 0 -8 -4 -12 -10 -9 -6 3 -7 -1 -4 -9 3 -9 1 -16 -5 -16
-6 0 -11 5 -11 10 0 6 -5 10 -11 10 -6 0 -9 -9 -6 -20 3 -11 1 -20 -4 -20 -5
0 -9 -6 -9 -13 0 -19 38 -18 43 1 4 15 5 15 6 0 0 -10 6 -18 12 -18 17 0 -11
-31 -36 -40 -23 -9 -99 25 -90 40 4 6 -3 10 -14 10 -58 0 -101 49 -101 116 0
29 -3 35 -16 30 -9 -3 -20 -6 -25 -6 -5 0 -9 -6 -9 -13 0 -14 -41 -57 -54 -57
-4 0 -6 6 -4 13 5 20 -23 77 -38 77 -8 0 -14 -4 -14 -10 0 -5 -9 -10 -20 -10
-13 0 -20 -7 -20 -20 0 -19 1 -20 25 -4 13 8 29 13 34 10 15 -9 2 -36 -14 -30
-10 4 -12 -1 -8 -15 4 -16 1 -21 -16 -21 -23 0 -26 -11 -11 -40 6 -11 17 -17
25 -14 8 4 15 1 15 -5 0 -6 6 -11 14 -11 8 0 18 -5 22 -12 4 -6 3 -8 -3 -5
-15 10 -24 -34 -11 -51 19 -22 71 -41 86 -29 6 5 12 6 12 2 0 -4 7 -2 16 6 13
10 17 10 25 -2 5 -8 7 -20 4 -26 -3 -10 13 -13 59 -13 85 0 126 9 126 27 0 12
3 13 14 4 23 -19 89 4 129 46 24 24 40 54 49 87 16 66 16 171 -1 218 -18 55
-86 117 -182 167 -126 67 -172 103 -189 145 -12 33 5 97 31 119 23 18 75 23
98 8 9 -6 22 -6 33 0 15 8 20 5 27 -13 6 -16 5 -25 -5 -31 -8 -5 -14 -25 -14
-48 0 -50 16 -57 125 -55 l80 1 -2 67 c-3 91 -22 134 -65 147 -18 5 -25 10
-15 10 26 1 12 18 -36 43 -35 19 -61 23 -159 25 -65 1 -118 -1 -118 -5z"/>
<path d="M4925 2493 c-3 -10 -6 -124 -5 -253 1 -273 3 -311 13 -327 5 -7 4
-13 -2 -13 -6 0 -10 -50 -10 -135 0 -90 4 -133 11 -129 7 4 7 -2 3 -17 -17
-53 -16 -54 83 -56 l92 -1 -2 30 c-1 16 -5 31 -9 34 -4 2 -5 12 -2 23 3 13 -2
20 -18 24 -20 5 -21 8 -8 23 13 16 14 16 17 1 2 -10 9 -17 17 -17 10 0 13 28
14 123 2 182 -6 164 71 160 120 -8 135 -34 139 -243 1 -80 7 -149 12 -155 6
-6 15 -3 26 8 16 16 16 17 0 17 -10 0 -14 5 -11 15 4 8 1 21 -5 29 -17 20 0
28 26 11 21 -14 27 -12 24 8 -1 5 2 6 7 3 5 -3 8 -25 7 -48 l-2 -44 65 -3 65
-2 -8 68 c-4 37 -8 77 -9 88 -1 11 -5 26 -9 33 -5 7 -4 12 2 12 14 0 14 94 0
145 -16 55 -42 89 -86 110 -35 17 -36 19 -18 29 49 27 91 83 104 139 27 112
-12 267 -70 275 -13 2 -34 13 -47 25 -23 21 -34 22 -247 25 -205 2 -223 1
-230 -15z m363 -157 c25 -24 27 -33 27 -105 0 -50 -5 -84 -14 -94 -7 -9 -10
-20 -8 -24 3 -5 -34 -9 -81 -8 l-87 0 -3 120 c-3 142 1 149 86 142 41 -3 59
-10 80 -31z"/>
<path d="M5903 2491 c3 -15 0 -21 -11 -21 -8 0 -24 -8 -35 -17 -18 -17 -19
-17 -16 6 7 44 -61 35 -126 -16 -63 -50 -54 -55 105 -57 36 -1 72 -4 80 -8 8
-3 31 -9 51 -12 21 -4 47 -19 65 -37 l29 -30 3 -185 c4 -204 -2 -188 70 -187
12 0 22 -4 22 -10 0 -6 -18 -7 -45 -4 l-45 7 -2 -33 c-1 -17 -1 -45 0 -62 2
-16 -3 -43 -9 -60 -27 -68 -77 -95 -143 -76 -28 7 -36 6 -36 -4 0 -18 -27 -38
-40 -30 -8 5 -8 11 1 21 6 8 8 14 3 14 -4 0 -3 5 3 11 8 8 7 16 -5 30 -8 10
-19 16 -24 13 -4 -3 -8 1 -8 9 0 8 7 17 15 21 17 6 20 36 4 36 -8 0 -8 4 -2
13 6 6 11 41 12 76 2 54 0 63 -13 58 -8 -3 -18 -2 -21 3 -4 6 3 10 14 10 20 0
21 5 21 136 0 165 12 219 52 244 17 10 25 21 19 24 -17 11 -61 -5 -61 -22 0
-13 -2 -13 -19 2 -17 16 -19 16 -25 -6 -3 -13 -6 -33 -6 -45 0 -13 -4 -23 -10
-23 -5 0 -10 -4 -10 -10 0 -5 6 -10 14 -10 10 0 12 -9 6 -42 -6 -29 -4 -45 3
-50 8 -5 6 -13 -6 -26 -9 -10 -17 -24 -17 -31 0 -16 -40 -10 -60 8 -8 8 -13
26 -12 40 3 22 -1 20 -23 -16 -14 -24 -31 -43 -37 -43 -7 0 -9 -60 -5 -187 4
-160 8 -195 25 -233 46 -103 122 -139 292 -137 96 2 123 6 165 25 27 12 57 31
66 41 24 25 49 77 42 85 -4 3 -1 6 5 6 30 0 43 151 15 182 -13 14 -14 21 -5
30 9 9 12 9 13 -3 1 -7 5 6 9 31 4 25 6 48 4 51 -2 4 -5 76 -7 160 -3 136 -6
160 -26 207 -29 65 -88 117 -155 137 -78 23 -96 21 -96 -15 0 -16 -5 -30 -11
-30 -6 0 -9 12 -7 28 3 23 -1 27 -26 30 -25 3 -28 1 -23 -17z"/>
<path d="M1990 1953 c-88 -38 -273 -205 -359 -323 -52 -71 -22 -70 63 3 181
154 352 247 499 272 45 7 40 20 -17 46 -50 22 -137 24 -186 2z"/>
<path d="M2260 1895 c-248 -56 -461 -193 -784 -506 -70 -67 -125 -124 -122
-126 2 -2 37 17 77 43 313 201 882 412 1188 440 39 4 71 11 71 17 0 26 -56 79
-115 108 -56 27 -78 32 -158 35 -57 2 -117 -2 -157 -11z"/>
<path d="M2915 1694 c-462 -29 -968 -186 -1400 -432 -187 -107 -455 -295 -455
-320 0 -27 29 -22 91 16 360 218 945 436 1369 511 213 37 303 44 513 38 167
-5 220 -10 309 -31 110 -26 148 -40 148 -56 0 -5 -35 -58 -78 -117 -195 -272
-332 -565 -349 -750 -3 -35 -10 -63 -16 -63 -5 0 -92 49 -193 110 -392 235
-645 335 -938 371 -125 15 -394 7 -498 -15 -165 -35 -325 -100 -438 -178 -116
-79 -117 -111 -1 -34 85 56 186 99 286 122 128 30 400 25 565 -9 341 -72 547
-175 945 -472 252 -188 326 -232 445 -266 85 -25 213 -25 305 0 81 21 194 73
219 100 16 17 13 18 -76 24 -96 6 -240 43 -310 78 -34 17 -36 21 -29 46 5 16
14 64 21 107 38 252 229 607 437 813 129 128 131 140 45 223 -89 87 -205 133
-417 165 -101 15 -388 26 -500 19z"/>
<path d="M4495 1463 c-16 -3 -37 -10 -45 -17 -8 -8 -28 -17 -45 -20 -40 -10
-101 -77 -117 -129 -9 -30 -13 -123 -13 -332 1 -301 6 -345 42 -345 15 0 16
-2 3 -10 -12 -7 -10 -14 15 -40 17 -18 43 -39 59 -47 26 -13 30 -13 45 2 11
12 13 19 4 22 -7 2 -9 11 -6 19 4 12 8 13 14 3 6 -10 11 -10 23 0 13 11 16 11
16 -3 0 -13 6 -15 28 -11 24 6 25 5 10 -8 -10 -8 -14 -18 -10 -22 4 -5 2 -6
-3 -2 -6 3 -17 1 -25 -4 -29 -18 12 -30 93 -27 84 3 106 12 57 23 -16 4 -33
11 -36 17 -4 6 1 8 14 4 11 -4 31 -9 44 -12 13 -3 33 -8 46 -11 23 -6 82 14
82 27 0 4 9 10 20 13 27 7 55 73 39 93 -9 11 -8 14 7 15 18 0 18 1 -1 9 -18 8
-18 9 -2 9 17 1 17 2 3 17 -9 8 -21 12 -27 8 -8 -5 -9 -3 -5 5 5 7 14 10 22 7
29 -11 22 14 -11 40 -20 15 -33 29 -30 32 3 3 11 0 17 -6 7 -7 22 -12 35 -12
18 0 23 6 23 24 0 23 -3 25 -72 28 -40 2 -82 0 -93 -4 -17 -6 -17 -7 -2 -7 18
-1 25 -21 7 -21 -5 0 -10 -7 -10 -16 0 -8 -4 -13 -8 -10 -4 2 -14 1 -22 -4
-12 -7 -9 -11 10 -18 24 -9 24 -9 3 -16 -11 -4 -26 -20 -33 -36 -7 -16 -28
-39 -47 -50 l-35 -20 -41 27 c-25 18 -44 39 -49 58 -4 17 -8 144 -9 284 0 235
1 256 19 280 25 34 93 71 99 54 3 -7 13 -13 24 -13 28 0 54 -47 52 -96 -1 -25
4 -47 12 -54 8 -7 48 -10 102 -8 l88 3 0 70 c0 77 -9 111 -36 136 -10 9 -16
19 -13 22 10 10 -59 50 -118 68 -56 18 -139 22 -213 12z"/>
<path d="M5690 1450 c0 -5 -7 -10 -16 -10 -13 0 -15 -7 -10 -30 3 -16 2 -30
-3 -30 -12 0 -13 -94 -2 -124 7 -16 7 -27 0 -31 -6 -4 -9 -108 -7 -283 3 -259
4 -279 24 -312 15 -27 27 -35 49 -35 16 -1 30 -6 32 -12 2 -6 -6 -8 -23 -5
-37 7 -24 -11 32 -44 134 -78 424 -34 468 71 21 49 34 156 36 285 1 63 3 187
4 275 2 132 0 163 -12 178 -15 16 -14 17 2 11 15 -6 17 -1 14 42 l-3 49 -85 5
c-47 3 -91 4 -97 2 -17 -5 -16 -22 0 -36 7 -6 10 -10 8 -9 -2 2 -10 -5 -16
-15 -8 -12 -13 -86 -14 -239 -1 -207 0 -223 16 -223 17 -1 17 -1 1 -11 -10 -5
-18 -16 -18 -24 0 -7 8 -16 18 -18 16 -4 16 -5 0 -6 -22 -1 -24 -21 -3 -21 19
0 19 -19 0 -26 -10 -4 -13 -14 -9 -29 3 -13 1 -26 -5 -29 -23 -14 -10 -26 29
-26 22 0 40 5 40 10 0 6 -9 10 -20 10 -11 0 -20 4 -20 10 0 10 27 3 48 -13 22
-18 12 -26 -35 -29 -39 -2 -49 -7 -51 -23 -1 -11 -18 -31 -37 -44 -46 -31
-110 -25 -140 13 -12 14 -29 26 -39 26 -18 0 -18 1 -3 18 19 21 22 48 7 57
-10 6 -9 32 2 51 11 16 6 74 -6 74 -8 0 -7 3 0 8 16 9 25 527 10 542 -13 13
-166 13 -166 0z"/>
<path d="M5223 1420 c3 -14 0 -20 -11 -20 -8 0 -24 -8 -35 -17 -18 -17 -19
-17 -16 7 4 23 1 25 -34 24 -42 -2 -120 -50 -125 -78 -4 -18 21 -21 142 -17
37 1 73 -2 80 -7 6 -5 27 -12 47 -16 45 -8 84 -45 93 -87 3 -18 6 -103 6 -190
0 -177 -6 -163 68 -162 12 0 22 -4 22 -10 0 -6 -18 -7 -45 -4 l-45 7 0 -64 c0
-128 -61 -195 -155 -168 -25 7 -32 5 -40 -11 -16 -33 -34 -32 -33 2 1 17 5 31
10 31 4 0 3 9 -4 20 -7 11 -18 20 -25 20 -18 0 -16 17 2 24 17 6 20 36 4 36
-8 0 -8 5 1 15 7 8 9 15 5 15 -4 0 -2 6 4 14 7 8 11 35 9 60 -2 38 -6 46 -23
47 -19 0 -19 1 1 9 20 8 21 16 23 160 1 83 6 162 11 174 5 13 21 33 36 45 32
25 27 35 -15 26 -19 -4 -31 -13 -31 -23 -1 -15 -3 -14 -15 2 -19 25 -27 16
-30 -31 -2 -20 -8 -39 -14 -41 -16 -5 -14 -22 4 -22 8 0 13 -6 11 -12 -11 -35
-15 -78 -7 -73 19 11 20 -13 1 -30 -11 -10 -20 -24 -20 -32 0 -18 -39 -14 -60
6 -8 8 -13 26 -12 40 3 26 3 25 -13 -4 -8 -16 -25 -38 -37 -48 -20 -17 -20
-23 -15 -200 6 -198 13 -228 67 -291 34 -38 108 -72 140 -63 11 3 20 1 20 -4
0 -15 162 -10 217 6 27 8 65 25 83 37 33 23 76 85 65 96 -3 3 2 13 10 22 9 9
19 47 23 83 7 55 5 69 -10 90 -12 16 -15 28 -8 32 5 3 10 1 10 -6 0 -30 11 3
15 45 3 30 1 46 -6 46 -8 0 -8 4 -2 13 6 6 9 61 8 122 -5 175 -26 247 -94 308
-39 35 -119 67 -169 67 -21 0 -24 -4 -20 -30 3 -22 0 -30 -10 -30 -11 0 -13 8
-8 30 5 28 4 30 -25 30 -26 0 -30 -3 -26 -20z"/>
<path d="M6362 1423 c-4 -10 -7 -223 -7 -473 l0 -455 85 0 85 0 -2 185 c-2
102 -4 263 -5 358 -2 94 -2 172 -2 172 1 0 10 -32 19 -70 10 -39 24 -77 32
-85 8 -8 10 -15 4 -15 -19 0 2 -32 28 -42 25 -9 25 -10 7 -23 -18 -14 -18 -15
8 -25 15 -5 34 -10 42 -10 11 0 13 -6 9 -19 -3 -11 -1 -22 5 -26 6 -3 10 3 10
14 0 30 40 29 41 -1 1 -13 2 -30 3 -38 1 -8 4 -20 8 -26 4 -6 4 -14 0 -18 -4
-4 -7 -12 -7 -17 0 -5 -3 -9 -7 -9 -31 0 -32 1 -18 10 12 7 12 12 3 21 -9 9
-16 9 -27 -1 -9 -7 -22 -10 -31 -7 -11 5 -13 0 -8 -26 3 -18 12 -42 20 -55 7
-12 12 -26 9 -31 -3 -4 10 -55 27 -112 l33 -104 129 -3 c72 -1 135 1 141 5 6
5 13 34 16 66 4 45 1 60 -9 64 -10 4 -11 8 -4 12 12 8 18 212 7 230 -4 6 -16
11 -27 11 -11 0 -18 -4 -15 -8 2 -4 -4 -8 -15 -8 -10 0 -19 4 -19 8 0 4 5 8
10 8 6 0 10 7 10 15 0 17 16 20 25 5 3 -5 15 -10 26 -10 16 0 19 4 14 21 -4
11 -6 40 -5 65 1 24 2 52 2 62 2 78 -6 232 -12 232 -5 0 -10 -5 -12 -12 -3 -7
-7 -6 -11 5 -5 12 -1 17 12 17 14 0 20 10 25 43 3 23 2 58 -2 77 l-8 35 -84 0
-85 0 1 -85 c2 -132 8 -183 22 -188 8 -2 10 2 5 14 -4 12 -3 15 5 10 18 -11
14 -33 -7 -39 -16 -4 -18 -16 -19 -98 -1 -52 2 -99 6 -106 10 -16 52 -5 52 14
0 10 -6 12 -20 8 -16 -5 -20 -2 -20 19 0 14 5 26 11 26 6 0 9 -7 5 -15 -4 -11
2 -15 22 -14 15 0 21 3 15 6 -25 9 -13 23 11 13 14 -5 26 -6 29 -2 2 4 3 2 1
-4 -1 -6 2 -16 8 -22 17 -17 1 -29 -60 -42 l-59 -12 -2 -101 c-1 -71 3 -103
11 -109 10 -6 9 -8 -3 -8 -11 0 -20 22 -33 80 -12 52 -23 80 -32 80 -8 0 -14
5 -14 10 0 6 5 10 10 10 18 0 11 28 -11 43 -12 9 -16 16 -9 19 9 3 8 22 -5 75
-14 58 -21 73 -38 75 -11 2 -23 10 -25 18 -5 13 -3 13 12 1 9 -8 19 -11 23 -8
6 7 -64 231 -94 300 l-16 37 -124 0 c-108 0 -125 -2 -131 -17z"/>
<path d="M7086 1428 c-12 -38 -15 -101 -6 -118 9 -17 23 -20 108 -22 l97 -3 6
-370 c3 -203 7 -383 8 -398 l1 -28 98 3 97 3 3 73 c2 46 -2 79 -9 88 -6 8 -8
14 -3 14 13 0 16 438 4 445 -7 4 -6 14 1 27 6 11 9 35 7 52 -3 17 -2 45 1 61
l6 30 100 5 100 5 0 70 0 70 -127 3 c-108 2 -127 0 -122 -12 4 -11 0 -13 -15
-9 -12 3 -21 9 -21 14 0 15 -330 11 -334 -3z"/>
<path d="M7762 1428 c-17 -17 -17 -508 -1 -508 8 0 8 -4 1 -12 -10 -14 -10
-47 1 -65 4 -6 3 -14 -2 -18 -12 -7 -11 -248 1 -256 5 -3 5 -16 -1 -31 -15
-41 -3 -47 92 -46 91 1 114 11 82 35 -11 7 -13 13 -6 13 7 0 9 5 4 13 -4 6 -6
19 -5 28 2 10 -6 19 -19 22 -20 5 -21 8 -8 23 13 16 14 16 17 1 2 -10 9 -17
16 -17 10 0 14 31 15 128 2 70 3 134 4 143 1 13 13 15 71 11 122 -7 131 -24
135 -242 1 -80 6 -149 11 -154 6 -5 15 -4 25 4 17 14 21 35 5 25 -5 -3 -10 0
-10 7 0 7 -3 23 -6 35 -5 18 -3 21 15 16 12 -3 21 -10 21 -15 0 -5 5 -6 10 -3
6 4 8 10 5 15 -3 4 2 11 11 14 13 5 15 2 9 -11 -28 -66 -4 -96 71 -91 27 2 48
8 47 14 -4 24 -14 131 -14 149 0 11 -5 23 -12 27 -9 6 -9 8 1 8 8 0 12 17 12
53 -1 109 -27 166 -95 201 -34 18 -37 21 -20 30 87 51 120 123 113 245 -6 97
-38 164 -81 169 -16 2 -31 10 -34 18 -3 7 -22 18 -43 24 -53 14 -424 12 -438
-2z m347 -153 c34 -29 48 -87 37 -158 -12 -72 -25 -82 -114 -82 l-77 0 -3 123
c-3 119 -2 123 20 132 46 18 105 12 137 -15z"/>
<path d="M8476 1411 c9 -38 48 -121 56 -121 5 0 8 7 8 15 0 8 4 15 9 15 6 0 6
-11 0 -28 -9 -26 1 -82 15 -82 3 0 2 8 -1 18 -6 15 -5 15 10 3 9 -7 17 -10 17
-5 0 4 9 -2 21 -14 23 -25 16 -46 -12 -39 -12 3 -19 0 -19 -8 0 -21 11 -45 22
-45 5 0 6 5 3 10 -8 13 5 13 38 -2 35 -17 35 -30 1 -22 -19 5 -25 4 -20 -5 4
-6 2 -11 -4 -11 -6 0 -8 -5 -3 -12 4 -7 8 -17 8 -23 1 -5 9 -28 19 -50 39 -87
45 -101 56 -137 6 -21 17 -38 23 -38 8 0 8 -3 -1 -9 -9 -5 -12 -30 -10 -87 l3
-79 35 -6 35 -6 -38 -2 c-30 -1 -38 -5 -35 -18 2 -9 18 -21 37 -26 19 -5 30
-12 24 -15 -5 -4 -13 -14 -16 -22 -4 -11 -7 -10 -12 8 -12 37 -35 27 -35 -15
0 -60 6 -64 106 -61 l89 3 2 165 c2 202 4 215 47 315 19 44 58 139 86 210 29
72 63 154 76 184 26 57 24 71 -8 71 -14 0 -18 -5 -14 -15 7 -20 -8 -19 -24 0
-10 12 -28 15 -64 13 -43 -3 -51 -6 -51 -23 0 -11 -5 -23 -12 -28 -10 -6 -35
-78 -94 -277 -23 -77 -39 -108 -39 -76 0 32 -51 191 -65 202 -8 6 -12 20 -9
31 4 15 -3 29 -25 49 -18 16 -27 30 -21 34 7 4 7 21 2 46 l-8 39 -107 1 -107
1 6 -26z"/>
<path d="M1420 795 c-8 -2 -49 -9 -90 -15 -146 -24 -330 -93 -452 -172 -45
-28 -61 -48 -39 -48 5 0 43 18 84 40 251 135 550 161 852 73 200 -58 376 -155
609 -336 186 -145 279 -187 411 -187 42 0 77 5 80 11 8 12 -80 95 -194 183
-280 217 -603 375 -886 432 -73 14 -338 28 -375 19z"/>
</g>
</svg>
