<?xml version="1.0" standalone="no"?>
<!DOCTYPE svg PUBLIC "-//W3C//DTD SVG 20010904//EN"
 "http://www.w3.org/TR/2001/REC-SVG-20010904/DTD/svg10.dtd">
<svg version="1.0" xmlns="http://www.w3.org/2000/svg"
 width="1em" height="1em" viewBox="0 0 359.000000 354.000000"
 preserveAspectRatio="xMidYMid meet">
<metadata>
Created by potrace 1.16, written by Peter Selinger 2001-2019
</metadata>
<g transform="translate(0.000000,354.000000) scale(0.100000,-0.100000)"
fill="currentColor" stroke="none">
<path d="M1685 3314 c-203 -19 -297 -38 -460 -91 -286 -93 -571 -287 -771
-526 -271 -323 -413 -709 -414 -1124 0 -221 38 -431 115 -633 38 -100 133
-290 145 -290 14 0 26 25 39 77 12 50 12 54 -23 127 -301 633 -178 1373 309
1861 114 114 235 209 249 195 11 -11 -11 -95 -30 -111 -20 -16 -17 -37 7 -49
20 -11 20 -12 -6 -37 -38 -38 -95 -138 -102 -175 -3 -24 5 -57 31 -120 20 -48
36 -95 36 -104 0 -10 7 -26 16 -36 14 -14 14 -20 4 -33 -11 -13 -8 -19 14 -40
14 -13 26 -33 26 -43 0 -29 30 -82 46 -82 25 0 28 30 7 68 -11 20 -23 50 -27
65 l-7 29 25 -19 c14 -10 26 -27 26 -38 0 -12 18 -39 40 -60 34 -33 40 -45 40
-81 0 -36 5 -47 37 -74 45 -40 131 -79 187 -86 37 -4 45 0 84 34 l43 38 -46
46 c-44 44 -45 48 -39 89 5 40 13 61 48 139 6 14 29 33 50 44 32 16 44 17 76
7 53 -16 84 -14 111 7 34 26 62 31 90 16 13 -7 41 -13 61 -14 44 0 68 -21 68
-61 0 -30 30 -69 54 -69 27 0 27 41 -1 135 -16 53 -3 77 62 112 70 37 94 65
75 88 -12 15 -11 16 12 19 7 0 13 9 13 18 0 29 64 68 112 68 41 0 55 11 33 25
-18 11 -10 30 19 48 35 21 51 22 51 3 0 -24 18 -28 47 -12 16 8 51 18 78 23
44 7 50 11 48 31 -3 29 28 30 80 2 20 -11 41 -20 47 -20 18 0 10 39 -9 45 -11
3 -26 17 -35 30 -9 14 -24 25 -34 25 -23 0 -42 19 -42 42 0 19 -30 37 -95 58
-22 7 -63 33 -91 57 -56 47 -89 55 -99 23 -9 -28 -24 -25 -89 14 -56 33 -126
54 -145 42 -5 -3 -7 -15 -4 -26 3 -11 0 -27 -7 -35 -8 -10 -9 -19 -2 -27 13
-17 -22 -98 -42 -98 -9 0 -18 11 -22 24 -11 43 -36 56 -129 66 -83 9 -125 26
-125 52 0 16 69 38 120 38 27 0 73 0 102 0 29 0 57 5 62 10 18 18 114 11 156
-10 44 -23 132 -28 128 -8 -2 7 7 14 19 16 37 6 48 28 28 58 -24 37 -67 51
-185 58 -58 3 -118 10 -135 14 l-30 9 30 6 c35 8 250 -24 282 -41 12 -7 31
-12 42 -12 11 0 25 -9 31 -20 6 -11 17 -20 26 -20 8 0 17 -7 21 -16 7 -18 161
-94 191 -94 9 0 26 -7 36 -15 41 -31 64 -2 31 41 -16 21 -19 34 -7 34 4 0 48
-23 97 -51 352 -202 621 -531 745 -910 27 -82 57 -217 75 -340 5 -30 16 -45
60 -78 30 -23 57 -41 59 -41 21 0 -38 346 -79 475 -93 285 -223 496 -444 716
-262 261 -589 427 -951 483 -99 16 -307 26 -375 20z"/>
<path d="M1590 1953 c-87 -38 -263 -195 -354 -317 -58 -77 -30 -79 58 -3 181
154 352 247 499 272 45 7 40 20 -17 46 -50 22 -137 24 -186 2z"/>
<path d="M1860 1895 c-248 -56 -461 -193 -784 -506 -70 -67 -125 -124 -122
-126 2 -2 37 17 77 43 312 201 872 408 1184 439 39 4 73 9 78 12 18 11 -58 84
-119 114 -55 27 -77 32 -157 35 -57 2 -117 -2 -157 -11z"/>
<path d="M2510 1694 c-604 -42 -1237 -282 -1746 -662 -57 -42 -104 -83 -104
-90 0 -27 29 -21 94 18 37 22 133 74 214 115 447 224 940 377 1371 426 154 17
459 6 585 -21 109 -23 166 -44 166 -59 0 -6 -36 -61 -81 -123 -84 -116 -157
-235 -210 -339 -76 -152 -139 -346 -139 -431 0 -21 -5 -38 -11 -38 -6 0 -94
50 -195 110 -478 286 -757 380 -1134 380 -222 0 -393 -33 -572 -110 -125 -54
-293 -170 -246 -170 8 0 26 8 39 19 209 164 532 210 919 131 302 -62 537 -181
900 -455 248 -187 353 -250 467 -279 82 -21 211 -20 298 3 81 21 194 73 219
100 16 17 13 18 -76 24 -97 6 -206 33 -295 72 -51 23 -52 24 -43 57 5 18 14
65 20 103 41 254 231 607 437 812 123 122 127 137 62 208 -85 92 -193 139
-400 174 -118 20 -412 34 -539 25z"/>
<path d="M1020 795 c-8 -2 -49 -9 -90 -15 -153 -25 -326 -91 -451 -170 -45
-30 -62 -50 -40 -50 5 0 46 20 92 44 156 81 318 120 499 120 322 -1 609 -119
966 -396 125 -98 196 -140 273 -162 62 -18 196 -22 206 -5 4 6 -21 36 -56 67
-303 274 -688 480 -1025 548 -72 14 -338 28 -374 19z"/>
</g>
</svg>
